<svg xmlns="http://www.w3.org/2000/svg" viewBox="0 0 1140 470" width="1140" height="470" font-family="'PingFang SC','Heiti SC','Microsoft YaHei',sans-serif">
  <defs>
    <marker id="a_blue" markerWidth="9" markerHeight="7" refX="8" refY="3.5" orient="auto" markerUnits="userSpaceOnUse">
      <path d="M0,0 L9,3.5 L0,7 Z" fill="#2563eb"/>
    </marker>
    <marker id="a_orange" markerWidth="9" markerHeight="7" refX="8" refY="3.5" orient="auto" markerUnits="userSpaceOnUse">
      <path d="M0,0 L9,3.5 L0,7 Z" fill="#ea580c"/>
    </marker>
    <marker id="a_green" markerWidth="9" markerHeight="7" refX="8" refY="3.5" orient="auto" markerUnits="userSpaceOnUse">
      <path d="M0,0 L9,3.5 L0,7 Z" fill="#059669"/>
    </marker>
    <marker id="a_purple" markerWidth="9" markerHeight="7" refX="8" refY="3.5" orient="auto" markerUnits="userSpaceOnUse">
      <path d="M0,0 L9,3.5 L0,7 Z" fill="#7c3aed"/>
    </marker>
    <marker id="a_red" markerWidth="9" markerHeight="7" refX="8" refY="3.5" orient="auto" markerUnits="userSpaceOnUse">
      <path d="M0,0 L9,3.5 L0,7 Z" fill="#dc2626"/>
    </marker>
    <marker id="a_slate" markerWidth="9" markerHeight="7" refX="8" refY="3.5" orient="auto" markerUnits="userSpaceOnUse">
      <path d="M0,0 L9,3.5 L0,7 Z" fill="#475569"/>
    </marker>
  </defs>
  <rect x="0" y="0" width="1140" height="470" fill="#ffffff"/>
  <text x="570" y="40" font-size="19" fill="#0f172a" text-anchor="middle" font-weight="700">检索召回流程</text>
  <rect x="40" y="196" width="180" height="84" rx="8" fill="#eff6ff" stroke="#2563eb" stroke-width="1.5"/>
  <text x="130" y="224" font-size="13.5" fill="#0f172a" text-anchor="middle" font-weight="700">检索请求</text>
  <text x="130" y="244" font-size="10.5" fill="#475569" text-anchor="middle" font-weight="400">用户的查询词</text>
  <text x="130" y="261" font-size="10.5" fill="#475569" text-anchor="middle" font-weight="400">范围与返回条数</text>
  <rect x="250" y="210" width="100" height="54" rx="8" fill="#ffffff" stroke="#2563eb" stroke-width="1.5"/>
  <text x="300" y="233" font-size="12.5" fill="#0f172a" text-anchor="middle" font-weight="600">校验请求</text>
  <text x="300" y="250" font-size="10" fill="#475569" text-anchor="middle" font-weight="400">查询词等</text>
  <path d="M220,237 H246" fill="none" stroke="#2563eb" stroke-width="1.8" marker-end="url(#a_blue)"/>
  <text x="500" y="78" font-size="11" fill="#475569" text-anchor="middle" font-weight="400">三路同时检索（可容忍部分失败）</text>
  <rect x="400" y="96" width="200" height="54" rx="8" fill="#f0fdf4" stroke="#10b981" stroke-width="1.5"/>
  <text x="500" y="119" font-size="13.5" fill="#047857" text-anchor="middle" font-weight="700">语义检索</text>
  <text x="500" y="137" font-size="10.5" fill="#475569" text-anchor="middle" font-weight="400">按含义找相近片段</text>
  <path d="M350,237 H392 V123 H398" fill="none" stroke="#059669" stroke-width="1.6" marker-end="url(#a_green)"/>
  <rect x="400" y="210" width="200" height="54" rx="8" fill="#f0fdf4" stroke="#10b981" stroke-width="1.5"/>
  <text x="500" y="233" font-size="13.5" fill="#047857" text-anchor="middle" font-weight="700">稀疏向量检索</text>
  <text x="500" y="251" font-size="10.5" fill="#475569" text-anchor="middle" font-weight="400">按词项权重匹配</text>
  <path d="M350,237 H392 V237 H398" fill="none" stroke="#059669" stroke-width="1.6" marker-end="url(#a_green)"/>
  <rect x="400" y="324" width="200" height="54" rx="8" fill="#f0fdf4" stroke="#10b981" stroke-width="1.5"/>
  <text x="500" y="347" font-size="13.5" fill="#047857" text-anchor="middle" font-weight="700">关键词检索</text>
  <text x="500" y="365" font-size="10.5" fill="#475569" text-anchor="middle" font-weight="400">按字面关键词匹配</text>
  <path d="M350,237 H392 V351 H398" fill="none" stroke="#059669" stroke-width="1.6" marker-end="url(#a_green)"/>
  <rect x="640" y="204" width="120" height="66" rx="8" fill="#fff7ed" stroke="#fb923c" stroke-width="1.5"/>
  <text x="700" y="230" font-size="13" fill="#c2410c" text-anchor="middle" font-weight="700">汇总结果</text>
  <text x="700" y="248" font-size="10" fill="#475569" text-anchor="middle" font-weight="400">容忍个别失败</text>
  <path d="M600,123 H620 V237 H636" fill="none" stroke="#059669" stroke-width="1.6" marker-end="url(#a_green)"/>
  <path d="M600,237 H620 V237 H636" fill="none" stroke="#059669" stroke-width="1.6" marker-end="url(#a_green)"/>
  <path d="M600,351 H620 V237 H636" fill="none" stroke="#059669" stroke-width="1.6" marker-end="url(#a_green)"/>
  <rect x="790" y="207" width="140" height="60" rx="8" fill="#faf5ff" stroke="#7c3aed" stroke-width="1.5"/>
  <text x="860" y="231" font-size="13" fill="#5b21b6" text-anchor="middle" font-weight="700">排名融合</text>
  <text x="860" y="249" font-size="10" fill="#475569" text-anchor="middle" font-weight="400">取综合排名前几条</text>
  <path d="M760,237 H786" fill="none" stroke="#ea580c" stroke-width="1.8" marker-end="url(#a_orange)"/>
  <rect x="960" y="196" width="165" height="84" rx="8" fill="#dcfce7" stroke="#16a34a" stroke-width="1.5"/>
  <text x="1042" y="224" font-size="13" fill="#0f172a" text-anchor="middle" font-weight="700">检索结果</text>
  <text x="1042" y="244" font-size="10" fill="#475569" text-anchor="middle" font-weight="400">候选片段及来源</text>
  <text x="1042" y="261" font-size="10" fill="#475569" text-anchor="middle" font-weight="400">各路命中数与耗时</text>
  <path d="M930,237 H956" fill="none" stroke="#7c3aed" stroke-width="1.8" marker-end="url(#a_purple)"/>
  <text x="860" y="300" font-size="10.5" fill="#475569" text-anchor="middle" font-weight="400">按各路排名打分合并，多路命中得分累加</text>
</svg>